<svg width="58" height="54" viewBox="0 0 58 54" fill="none" xmlns="http://www.w3.org/2000/svg">
<path d="M2.1886 19.9214C10.0878 0.169178 34.2763 -6.09966 49.3314 9.65185C53.5538 14.0847 56.3517 19.8179 57.4906 25.843C57.5199 26.2493 57.8165 26.6224 57.2379 27.1174L53.7845 27.6161C53.0777 27.3575 53.2498 26.977 53.1546 26.6298C51.2686 14.0293 40.5532 3.67854 27.6295 4.10706C23.3485 4.21049 19.0784 5.50711 15.4016 7.72355C10.3662 10.6751 6.40372 15.385 3.92079 20.686C3.91713 20.6786 2.1886 19.9214 2.1886 19.9214Z" fill="white"/>
<path d="M32.4708 17.0956H23.2495L22.5061 20.9928L30.8045 21.0039C34.9171 21.0039 36.133 22.4039 36.0963 24.7238C36.078 25.9096 35.5287 27.9229 35.2907 28.5767C34.6571 30.3166 33.3534 32.2967 28.4754 32.2893L20.4114 32.2856L19.6387 36.3232H28.8343C32.079 36.3232 33.4523 35.9686 34.9171 35.3406C38.1545 33.9331 40.0807 30.9409 40.8571 27.0363C42.007 21.2218 40.5751 17.0845 32.4745 17.0845" fill="white"/>
<path d="M19.2578 24.624C16.8225 24.624 16.4746 26.109 16.2476 27.0067C15.9436 28.1777 15.8447 28.658 15.8447 28.658H25.3517C27.787 28.658 28.1349 27.1729 28.3619 26.2753C28.6659 25.1043 28.7648 24.624 28.7648 24.624H19.2578Z" fill="white"/>
<path d="M56.0294 32.7288C49.1922 52.88 25.37 60.4491 9.49827 45.5362C5.04877 41.3397 1.94693 35.7617 0.493063 29.8105C0.441793 29.4079 0.123185 29.0495 0.679831 28.525L4.10394 27.8379C4.82538 28.0595 4.67157 28.4474 4.78509 28.791C7.33761 41.2695 18.5877 51.0293 31.4711 49.9026C35.7412 49.5701 39.9343 48.0408 43.4866 45.6285C48.3573 42.4073 52.0634 37.4905 54.2606 32.0639C54.2606 32.0676 56.0294 32.7288 56.0294 32.7288Z" fill="white"/>
</svg>
