<svg width="61" height="54" viewBox="0 0 61 54" fill="none" xmlns="http://www.w3.org/2000/svg">
<path d="M40.096 0H18.0413L16.2122 11.1014L36.1193 11.1271C45.9254 11.1271 48.8164 14.9985 48.7338 21.4081C48.6866 24.6898 47.3768 30.2533 46.8104 32.0608C45.2999 36.868 42.1965 42.3418 30.5614 42.329L11.2089 42.3162L9.37988 53.4304H31.3874C39.152 53.4304 42.4443 52.4433 45.949 50.6999C53.7018 46.7901 58.3157 38.4832 60.1683 27.6382C62.9178 11.486 59.4957 0 40.096 0Z" fill="white"/>
<path d="M8.52427 21.1389C2.74214 21.1389 1.91612 25.2282 1.3733 27.7023C0.653486 30.9328 0.41748 32.2532 0.41748 32.2532H23.0032C28.7854 32.2532 29.6114 28.1638 30.1542 25.6897C30.874 22.4593 31.11 21.1389 31.11 21.1389H8.52427Z" fill="white"/>
</svg>
