<svg width="16" height="18" viewBox="0 0 16 18" fill="none" xmlns="http://www.w3.org/2000/svg">
<path d="M12.6562 2.61299C11.7984 1.75518 10.4062 1.75518 9.54844 2.61299L3.07969 9.08174C1.59961 10.5618 1.59961 12.9595 3.07969 14.4396C4.55977 15.9196 6.95742 15.9196 8.4375 14.4396L13.7812 9.0958C14.1645 8.7126 14.7902 8.7126 15.1734 9.0958C15.5566 9.479 15.5566 10.1048 15.1734 10.488L9.82969 15.8317C7.57969 18.0817 3.9375 18.0817 1.6875 15.8317C-0.5625 13.5817 -0.5625 9.93955 1.6875 7.68955L8.15625 1.2208C9.78399 -0.406934 12.4207 -0.406934 14.0484 1.2208C15.6762 2.84854 15.6762 5.48525 14.0484 7.11299L7.86094 13.3005C6.85547 14.306 5.22422 14.306 4.21875 13.3005C3.21328 12.295 3.21328 10.6638 4.21875 9.6583L9.28125 4.5958C9.66445 4.2126 10.2902 4.2126 10.6734 4.5958C11.0566 4.979 11.0566 5.60478 10.6734 5.98799L5.61094 11.0505C5.37539 11.286 5.37539 11.6728 5.61094 11.9083C5.84648 12.1438 6.2332 12.1438 6.46875 11.9083L12.6562 5.7208C13.5141 4.86299 13.5141 3.4708 12.6562 2.61299Z" fill="#A7A7A7"/>
</svg>
