<svg width="26" height="25" viewBox="0 0 26 25" fill="none" xmlns="http://www.w3.org/2000/svg">
<mask id="path-1-inside-1_57_342" fill="white">
<path d="M3.54545 13.4615C3.54545 8.65385 4.72727 2.88462 13 2.88462C21.2727 2.88462 22.4545 8.65385 22.4545 13.4615C22.4545 18.2692 26 21.1538 26 21.1538H0C0 21.1538 3.54545 18.2692 3.54545 13.4615ZM17.7273 21.1538C17.7273 21.1538 17.7273 25 13 25C8.27273 25 8.27273 21.1538 8.27273 21.1538M13 0V2.88462V0Z"/>
</mask>
<path d="M3.54545 13.4615C3.54545 8.65385 4.72727 2.88462 13 2.88462C21.2727 2.88462 22.4545 8.65385 22.4545 13.4615C22.4545 18.2692 26 21.1538 26 21.1538H0C0 21.1538 3.54545 18.2692 3.54545 13.4615ZM17.7273 21.1538C17.7273 21.1538 17.7273 25 13 25C8.27273 25 8.27273 21.1538 8.27273 21.1538M13 0V2.88462V0Z" fill="white"/>
<path d="M26 21.1538V22.1538C26.4232 22.1538 26.8005 21.8875 26.9423 21.4887C27.084 21.09 26.9594 20.6452 26.6311 20.3782L26 21.1538ZM0 21.1538L-0.631111 20.3782C-0.959365 20.6452 -1.08397 21.09 -0.942256 21.4887C-0.800537 21.8875 -0.423176 22.1538 0 22.1538V21.1538ZM18.7273 21.1538C18.7273 20.6016 18.2796 20.1538 17.7273 20.1538C17.175 20.1538 16.7273 20.6016 16.7273 21.1538H18.7273ZM9.27273 21.1538C9.27273 20.6016 8.82501 20.1538 8.27273 20.1538C7.72044 20.1538 7.27273 20.6016 7.27273 21.1538H9.27273ZM14 0C14 -0.552285 13.5523 -1 13 -1C12.4477 -1 12 -0.552285 12 0H14ZM4.54545 13.4615C4.54545 11.1007 4.84443 8.70475 6.00863 6.91559C7.11675 5.21261 9.12817 3.88462 13 3.88462V1.88462C8.5991 1.88462 5.88325 3.44123 4.33228 5.82479C2.83738 8.12217 2.54545 11.0147 2.54545 13.4615H4.54545ZM13 3.88462C16.8718 3.88462 18.8832 5.21261 19.9914 6.91559C21.1556 8.70475 21.4545 11.1007 21.4545 13.4615H23.4545C23.4545 11.0147 23.1626 8.12217 21.6677 5.82479C20.1168 3.44123 17.4009 1.88462 13 1.88462V3.88462ZM21.4545 13.4615C21.4545 16.1187 22.4351 18.2331 23.3967 19.6674C23.8782 20.3857 24.3603 20.9418 24.7253 21.3212C24.9082 21.5113 25.0626 21.6582 25.1744 21.7599C25.2303 21.8109 25.2757 21.8506 25.3087 21.8789C25.3252 21.8931 25.3386 21.9044 25.3487 21.9128C25.3537 21.9171 25.358 21.9206 25.3613 21.9233C25.363 21.9247 25.3645 21.926 25.3658 21.927C25.3664 21.9275 25.367 21.928 25.3675 21.9284C25.3677 21.9286 25.3681 21.9289 25.3682 21.929C25.3686 21.9293 25.3689 21.9295 26 21.1538C26.6311 20.3782 26.6314 20.3784 26.6317 20.3786C26.6318 20.3787 26.632 20.3789 26.6322 20.379C26.6325 20.3793 26.6327 20.3795 26.6329 20.3797C26.6333 20.38 26.6335 20.3801 26.6335 20.3801C26.6335 20.3801 26.6326 20.3794 26.631 20.378C26.6277 20.3752 26.6212 20.3698 26.6117 20.3616C26.5927 20.3454 26.5619 20.3184 26.5209 20.2811C26.4388 20.2063 26.3163 20.0902 26.1667 19.9348C25.867 19.6231 25.4627 19.1575 25.0579 18.5537C24.2467 17.3438 23.4545 15.6121 23.4545 13.4615H21.4545ZM26 20.1538H0V22.1538H26V20.1538ZM0 21.1538C0.631111 21.9295 0.631434 21.9293 0.63177 21.929C0.6319 21.9289 0.632251 21.9286 0.632511 21.9284C0.633033 21.928 0.633609 21.9275 0.634239 21.927C0.635499 21.926 0.636975 21.9247 0.638664 21.9233C0.642042 21.9206 0.646272 21.9171 0.651327 21.9128C0.661435 21.9044 0.674846 21.8931 0.691337 21.8789C0.724313 21.8506 0.769651 21.8109 0.825574 21.7599C0.937353 21.6582 1.09184 21.5113 1.27468 21.3212C1.63969 20.9418 2.12177 20.3857 2.60334 19.6674C3.56492 18.2331 4.54545 16.1187 4.54545 13.4615H2.54545C2.54545 15.6121 1.75326 17.3438 0.942116 18.5537C0.537316 19.1575 0.133038 19.6231 -0.166727 19.9348C-0.316268 20.0902 -0.438774 20.2063 -0.520886 20.2811C-0.561909 20.3184 -0.592743 20.3454 -0.611703 20.3616C-0.62118 20.3698 -0.627678 20.3752 -0.630986 20.378C-0.632639 20.3794 -0.633495 20.3801 -0.633525 20.3801C-0.63354 20.3801 -0.633348 20.38 -0.632947 20.3797C-0.632746 20.3795 -0.632493 20.3793 -0.632188 20.379C-0.632035 20.3789 -0.631765 20.3787 -0.631689 20.3786C-0.631407 20.3784 -0.631111 20.3782 0 21.1538ZM17.7273 21.1538C16.7273 21.1538 16.7273 21.1533 16.7273 21.1527C16.7273 21.1525 16.7273 21.152 16.7273 21.1516C16.7273 21.1509 16.7273 21.1503 16.7273 21.1497C16.7273 21.1485 16.7273 21.1476 16.7273 21.1469C16.7273 21.1454 16.7273 21.1448 16.7273 21.1451C16.7273 21.1455 16.7272 21.1493 16.727 21.1561C16.7264 21.1698 16.725 21.1956 16.7219 21.2317C16.7155 21.3042 16.702 21.4162 16.6738 21.5541C16.6165 21.8334 16.5034 22.197 16.2844 22.5533C15.8856 23.2023 15.0361 24 13 24V26C15.6912 26 17.2053 24.8747 17.9883 23.6005C18.3603 22.9953 18.5425 22.3974 18.6331 21.9555C18.6787 21.7328 18.7021 21.5443 18.7142 21.4066C18.7203 21.3375 18.7235 21.2806 18.7253 21.238C18.7262 21.2166 18.7267 21.1988 18.7269 21.1847C18.7271 21.1777 18.7272 21.1715 18.7272 21.1664C18.7272 21.1638 18.7272 21.1615 18.7273 21.1594C18.7273 21.1583 18.7273 21.1574 18.7273 21.1564C18.7273 21.156 18.7273 21.1553 18.7273 21.1551C18.7273 21.1545 18.7273 21.1538 17.7273 21.1538ZM13 24C10.9639 24 10.1144 23.2023 9.71561 22.5533C9.49664 22.197 9.38345 21.8334 9.32625 21.5541C9.29799 21.4162 9.2845 21.3042 9.27813 21.2317C9.27496 21.1956 9.2736 21.1698 9.27304 21.1561C9.27276 21.1493 9.27268 21.1455 9.27267 21.1451C9.27267 21.1448 9.27268 21.1454 9.2727 21.1469C9.2727 21.1476 9.27271 21.1485 9.27272 21.1497C9.27272 21.1503 9.27272 21.1509 9.27272 21.1516C9.27273 21.152 9.27273 21.1525 9.27273 21.1527C9.27273 21.1533 9.27273 21.1538 8.27273 21.1538C7.27273 21.1538 7.27273 21.1545 7.27273 21.1551C7.27273 21.1553 7.27273 21.156 7.27273 21.1564C7.27273 21.1574 7.27274 21.1583 7.27274 21.1594C7.27275 21.1615 7.27277 21.1638 7.27279 21.1664C7.27284 21.1715 7.27293 21.1777 7.27307 21.1847C7.27335 21.1988 7.27384 21.2166 7.27472 21.238C7.27647 21.2806 7.27973 21.3375 7.28579 21.4066C7.29789 21.5443 7.32132 21.7328 7.36693 21.9555C7.45746 22.3974 7.63972 22.9953 8.01166 23.6005C8.79468 24.8747 10.3088 26 13 26V24ZM12 0V2.88462H14V0H12Z" fill="white" mask="url(#path-1-inside-1_57_342)"/>
<circle cx="21" cy="5" r="5" fill="#B62D2D"/>
</svg>
