<svg width="18" height="18" viewBox="0 0 18 18" fill="none" xmlns="http://www.w3.org/2000/svg">
<g clip-path="url(#clip0_444_2)">
<path d="M17.5114 0.196887C17.8665 0.442981 18.0529 0.868372 17.9861 1.29376L15.7361 15.9188C15.6833 16.2598 15.4759 16.5586 15.1736 16.7274C14.8712 16.8961 14.5091 16.9172 14.1892 16.7836L9.9845 15.0363L7.57629 17.6414C7.2634 17.9824 6.77122 18.0949 6.33879 17.9262C5.90637 17.7574 5.62512 17.3391 5.62512 16.875V13.9359C5.62512 13.7953 5.67786 13.6617 5.77278 13.5598L11.665 7.1297C11.8689 6.90822 11.8618 6.5672 11.6509 6.35626C11.44 6.14533 11.0989 6.13126 10.8775 6.33165L3.72668 12.6844L0.622388 11.1305C0.249731 10.9442 0.0106689 10.5715 0.000122031 10.1567C-0.0104248 9.74181 0.207544 9.35509 0.566138 9.14767L16.3161 0.147669C16.6923 -0.0667845 17.1564 -0.0456908 17.5114 0.196887Z" fill="#A7A7A7"/>
</g>
<defs>
<clipPath id="clip0_444_2">
<rect width="18" height="18" fill="white"/>
</clipPath>
</defs>
</svg>
