<svg width="30" height="30" viewBox="0 0 30 30" fill="none" xmlns="http://www.w3.org/2000/svg">
<path d="M15 30C23.2843 30 30 23.2843 30 15C30 6.71573 23.2843 0 15 0C6.71573 0 0 6.71573 0 15C0 23.2843 6.71573 30 15 30Z" fill="#008CE7"/>
<path d="M17.8944 7.50385H11.0731L10.5088 10.6604L16.6606 10.6698C19.6897 10.6698 20.5888 11.7695 20.5597 13.5948C20.5466 14.5304 20.1388 16.1129 19.9663 16.6229C19.5003 17.9917 18.5403 19.5498 14.9422 19.5451L8.96281 19.5413L8.39844 22.7017H15.2019C17.6009 22.7017 18.6228 22.4213 19.7019 21.9235C22.0963 20.8192 23.5222 18.4538 24.095 15.3667C24.9444 10.7729 23.885 7.50385 17.8934 7.50385H17.8944Z" fill="white"/>
<path d="M14.8202 14.8104C15.0424 13.8869 15.1127 13.5166 15.1127 13.5166H8.13207C6.34707 13.5166 6.09207 14.6791 5.92238 15.3822C5.7002 16.3019 5.62988 16.6769 5.62988 16.6769H12.6114C14.3955 16.6769 14.6505 15.5144 14.8202 14.8104Z" fill="white"/>
</svg>
